<?xml version='1.0' encoding='iso-8859-1'?>
<!DOCTYPE svg PUBLIC '-//W3C//DTD SVG 1.1//EN' 'http://www.w3.org/Graphics/SVG/1.1/DTD/svg11.dtd'>
<svg version="1.1" xmlns="http://www.w3.org/2000/svg" viewBox="0 0 461.894 461.894" xmlns:xlink="http://www.w3.org/1999/xlink" enable-background="new 0 0 461.894 461.894">
  <path d="m423.438,329.101l36.411-55.592c3.691-5.637 2.251-13.186-3.257-17.067l-185.422-130.655c2.815-11.029 2.254-22.641-1.738-33.564-5.228-14.308-15.715-25.724-29.529-32.144-6.257-2.908-13.692-0.194-16.604,6.067-2.909,6.261-0.193,13.694 6.067,16.604 7.759,3.606 13.649,10.018 16.585,18.053 2.937,8.036 2.567,16.734-1.038,24.493-0.005,0.009-0.009,0.018-0.013,0.027l-45.406,97.704c-2.909,6.26-0.192,13.694 6.067,16.604l37.233,17.305-20.146,77.443h-63.228v-160.078c0-6.904-5.597-12.5-12.5-12.5h-107.868c-5.487,0-10.333,3.579-11.947,8.824l-26.552,86.283c-0.366,1.191-0.553,2.43-0.553,3.676v86.294c0,6.904 5.597,12.5 12.5,12.5h41.535c1.558,24.304 21.816,43.604 46.507,43.604s44.949-19.3 46.507-43.604h119.137c1.558,24.304 21.816,43.604 46.507,43.604 13.459,0 25.597-5.741 34.114-14.894 8.517,9.154 20.656,14.894 34.115,14.894 25.704,0 46.615-20.912 46.615-46.615 0-8.898-2.509-17.219-6.852-24.3 1.047-0.821 1.99-1.801 2.753-2.966zm-162.161-179.701l171.038,120.519-23.868,36.441-181.015-84.133 33.845-72.827zm-212.994,37.401h35.053v61.281h-53.91l18.857-61.281zm-23.283,86.281h70.836c6.903,0 12.5-5.597 12.5-12.5v-73.781h26.084v137.596c-8.505-9.007-20.542-14.645-33.878-14.645-17.756,0-33.221,9.982-41.09,24.626h-34.452v-61.296zm75.542,104.9c-11.919,0-21.615-9.697-21.615-21.615s9.696-21.615 21.615-21.615 21.615,9.696 21.615,21.615-9.696,21.615-21.615,21.615zm171.062-43.604h-23.124l17.359-66.731 97.782,45.448c-6.435,2.582-12.165,6.555-16.814,11.552-8.517-9.153-20.655-14.894-34.114-14.894-17.756-0.001-33.221,9.981-41.089,24.625zm41.089,43.604c-11.919,0-21.615-9.697-21.615-21.615s9.696-21.615 21.615-21.615c11.918,0 21.614,9.696 21.614,21.615s-9.696,21.615-21.614,21.615zm68.23,0c-11.919,0-21.615-9.697-21.615-21.615s9.696-21.615 21.615-21.615 21.615,9.696 21.615,21.615-9.696,21.615-21.615,21.615z"/>
</svg>
