<?xml version="1.0" standalone="no"?>
<!DOCTYPE svg PUBLIC "-//W3C//DTD SVG 20010904//EN"
 "http://www.w3.org/TR/2001/REC-SVG-20010904/DTD/svg10.dtd">
<svg version="1.0" xmlns="http://www.w3.org/2000/svg"
 width="600.000000pt" height="600.000000pt" viewBox="0 0 600.000000 600.000000"
 preserveAspectRatio="xMidYMid meet">
<metadata>
Created by potrace 1.10, written by Peter Selinger 2001-2011
</metadata>
<g transform="translate(0.000000,600.000000) scale(0.100000,-0.100000)"
fill="#41b541" stroke="none">
<path d="M1675 5363 c-33 -7 -91 -20 -130 -29 -80 -18 -121 -33 -220 -81 -76
-37 -88 -44 -153 -85 -24 -16 -47 -28 -52 -28 -4 0 -10 -4 -12 -9 -1 -5 -34
-34 -71 -65 -142 -116 -286 -314 -363 -501 -21 -51 -64 -209 -86 -315 -16 -83
-25 -2439 -8 -2480 5 -14 14 -52 19 -85 9 -56 15 -81 55 -222 14 -49 50 -128
110 -237 36 -68 62 -102 171 -227 47 -54 202 -184 248 -208 23 -12 56 -31 72
-41 28 -17 75 -41 150 -75 17 -7 41 -15 55 -18 14 -2 70 -17 125 -33 l100 -29
1315 0 c1201 0 1320 1 1375 17 33 9 96 27 140 39 44 12 87 25 95 29 8 4 29 14
45 21 17 7 67 35 111 61 45 26 86 48 92 48 6 0 12 4 14 8 2 5 34 33 72 62 119
93 260 268 339 420 146 282 196 740 103 950 -61 140 -231 249 -387 250 -158 0
-322 -104 -391 -250 -30 -65 -39 -125 -42 -295 -3 -181 0 -169 -63 -290 -22
-41 -132 -146 -174 -166 -122 -59 5 -54 -1324 -54 l-1210 0 -55 24 c-77 33
-200 126 -200 151 0 6 -3 10 -7 10 -5 0 -17 15 -27 33 -80 133 -76 60 -76
1315 0 1184 0 1182 50 1264 11 18 24 43 30 56 21 47 114 128 195 168 l80 39
1255 0 1255 0 45 -25 c54 -30 111 -85 134 -131 67 -131 59 -248 -25 -344 -30
-34 -258 -211 -334 -260 -16 -10 -35 -23 -41 -29 -7 -6 -22 -18 -35 -28 -13
-9 -79 -57 -147 -107 -67 -50 -127 -91 -132 -91 -6 0 -10 -4 -10 -8 0 -8 -108
-91 -163 -125 -16 -10 -110 -79 -208 -153 -98 -74 -183 -134 -189 -134 -5 0
-10 -4 -10 -9 0 -16 -50 -42 -70 -36 -10 3 -51 49 -92 102 -363 477 -372 486
-498 528 -110 37 -258 24 -365 -32 -70 -37 -142 -130 -189 -247 -21 -50 -22
-202 -2 -248 8 -18 17 -40 20 -48 11 -27 112 -178 131 -195 6 -5 40 -48 75
-95 35 -47 67 -87 70 -90 4 -3 64 -81 135 -175 70 -93 133 -174 140 -180 6 -5
45 -55 87 -110 118 -157 171 -198 309 -238 73 -22 130 -21 208 3 64 21 155 64
179 87 20 19 124 97 157 118 17 10 110 78 207 152 98 73 180 133 183 133 5 0
85 59 546 400 100 74 187 137 193 139 6 2 31 20 56 41 25 20 71 55 103 77 56
39 138 104 232 184 91 77 207 216 271 324 29 48 84 171 84 186 0 6 6 25 14 42
54 128 72 433 32 567 -8 25 -21 72 -31 105 -18 66 -42 132 -56 155 -5 8 -12
22 -15 30 -3 8 -10 22 -15 30 -5 8 -12 22 -16 30 -4 8 -10 17 -13 20 -4 3 -26
32 -48 65 -54 77 -138 163 -229 231 -39 30 -74 54 -77 54 -3 0 -40 20 -82 45
-41 25 -81 45 -88 45 -7 0 -21 7 -32 15 -10 8 -28 15 -39 15 -11 0 -29 7 -39
15 -11 8 -30 15 -43 15 -13 0 -49 6 -81 14 -185 47 -154 46 -1494 45 -1038 -1
-1274 -4 -1323 -16z"/>
</g>
</svg>
