<!DOCTYPE svg PUBLIC "-//W3C//DTD SVG 20010904//EN" "http://www.w3.org/TR/2001/REC-SVG-20010904/DTD/svg10.dtd">
<svg version="1.0" xmlns="http://www.w3.org/2000/svg" width="365px" height="457px" viewBox="0 0 3650 4570" preserveAspectRatio="xMidYMid meet">
<g id="layer1" fill="#000000" stroke="none">
 <path d="M2302 4364 c-24 -7 -63 -26 -88 -41 -39 -25 -48 -37 -79 -118 -19 -50 -35 -96 -35 -103 0 -9 74 -12 301 -12 l301 0 -7 28 c-3 15 -15 56 -26 92 -19 64 -22 67 -87 107 -48 30 -86 45 -132 52 -79 13 -93 13 -148 -5z"/>
 <path d="M1205 4350 c-85 -11 -129 -35 -152 -83 -22 -45 -67 -196 -61 -202 2 -2 142 -5 312 -7 l308 -3 -6 62 c-10 93 -39 153 -89 185 -79 50 -184 66 -312 48z"/>
 <path d="M1970 3598 l0 -455 188 -6 c103 -4 219 -7 258 -7 l71 0 9 253 9 252 105 7 c58 4 158 10 224 14 l119 6 -8 187 c-4 102 -8 187 -8 187 -1 1 -219 5 -484 9 l-483 8 0 -455z"/>
 <path d="M757 3918 c-4 -66 -7 -145 -7 -173 l0 -52 193 -9 192 -9 3 -267 2 -268 284 0 284 0 6 103 c12 191 37 769 34 773 -3 2 -833 24 -944 24 l-41 0 -6 -122z"/>
 <path d="M483 3108 c-41 -41 -43 -42 -57 -23 -12 17 -16 17 -31 5 -28 -24 -54 -85 -67 -161 -11 -70 -11 -73 10 -87 22 -15 22 -15 -23 -67 -43 -51 -46 -60 -81 -210 l-36 -158 31 -145 31 -145 58 -64 c31 -35 74 -84 95 -108 l39 -44 -167 -321 c-92 -177 -166 -323 -164 -324 2 -2 330 -8 729 -12 l724 -9 7 -34 c4 -19 9 -64 11 -100 l3 -66 -226 -9 -227 -9 -8 -126 -9 -126 -88 -8 c-48 -5 -95 -6 -103 -3 -11 4 -14 26 -14 96 l0 90 -39 0 -39 0 -7 -195 c-4 -108 -6 -198 -4 -200 3 -2 28 -7 58 -11 l53 -7 -3 69 -4 69 79 8 c44 4 86 5 93 3 10 -4 13 -42 13 -166 l0 -160 185 0 185 0 34 -67 c64 -124 143 -160 326 -148 92 6 111 10 156 37 42 25 57 42 82 93 l31 63 103 6 c252 16 278 18 278 30 -1 6 -9 69 -19 139 -9 70 -14 130 -10 133 10 6 192 23 200 18 3 -2 9 -47 13 -101 7 -97 13 -113 47 -113 18 0 19 14 35 333 l6 127 -40 0 -41 0 -3 -87 -3 -88 -105 0 -105 0 -9 148 -9 147 -136 -7 c-75 -4 -154 -8 -176 -8 l-40 0 0 105 0 105 688 3 c378 1 687 4 687 6 0 2 -59 123 -131 270 -71 146 -128 270 -125 275 3 4 31 18 63 29 68 25 98 65 138 183 23 66 25 88 25 243 0 166 -1 174 -35 285 -24 80 -50 140 -86 199 -50 82 -51 86 -39 121 14 42 5 87 -35 177 -26 59 -25 58 -72 45 -31 -9 -33 -7 -60 35 -30 46 -47 53 -78 30 -19 -14 -19 -15 13 -55 38 -47 40 -61 10 -61 -14 0 -34 13 -50 32 -25 31 -27 32 -53 18 -39 -21 -41 -35 -10 -72 l27 -32 -23 -10 c-13 -5 -25 -11 -27 -12 -2 -1 7 -21 18 -45 29 -59 123 -129 173 -129 52 0 114 -77 171 -211 38 -92 44 -117 50 -209 7 -98 5 -114 -24 -232 l-32 -127 -58 -45 c-32 -25 -62 -46 -67 -46 -4 0 -145 275 -313 610 l-305 610 -738 0 -738 0 -262 -530 c-143 -291 -264 -530 -268 -530 -3 0 -52 49 -107 109 l-102 109 11 166 c9 151 13 174 41 239 38 90 42 95 74 89 17 -3 50 6 93 27 51 25 72 42 90 73 20 35 21 43 10 69 -10 26 -9 37 12 81 23 49 23 50 4 64 -28 20 -37 18 -75 -21 -32 -33 -60 -45 -60 -27 0 5 11 19 25 32 29 27 35 84 9 94 -29 11 -39 6 -81 -36z m962 -583 l0 -140 -140 0 -140 0 -3 129 c-1 72 0 136 2 143 4 11 36 13 143 11 l138 -3 0 -140z m1000 15 l0 -125 -130 0 -130 0 -3 114 c-1 63 0 121 2 128 4 11 34 13 133 11 l128 -3 0 -125z m-490 -10 l0 -125 -135 0 -135 0 -3 114 c-1 63 0 121 2 128 4 11 35 13 138 11 l133 -3 0 -125z m218 -1754 c54 -23 92 -71 92 -117 0 -35 -6 -46 -42 -80 -69 -64 -117 -64 -186 0 -36 34 -42 45 -42 80 0 45 37 93 90 117 38 17 49 17 88 0z m-617 -41 c45 -35 62 -90 40 -133 -50 -97 -170 -104 -232 -13 -30 44 -30 69 -1 111 49 72 126 86 193 35z"/>
 <path d="M3173 1032 c-83 -26 -155 -50 -159 -55 -4 -4 3 -21 15 -38 l23 -31 -28 -24 c-16 -13 -50 -41 -76 -61 -45 -34 -59 -53 -40 -53 4 0 68 17 142 39 l135 38 -2 46 -1 47 84 62 c81 60 99 79 72 77 -7 0 -81 -22 -165 -47z"/>
 <path d="M220 1051 c0 -9 274 -271 284 -271 3 0 17 23 31 51 18 35 31 49 41 45 8 -3 53 -22 100 -42 46 -20 88 -34 91 -30 4 4 -36 50 -90 104 l-96 96 -43 -20 -43 -21 -129 48 c-134 51 -146 54 -146 40z"/>
 <path d="M643 518 l-81 -42 -36 27 c-19 15 -39 27 -44 27 -14 0 -216 -219 -209 -226 3 -4 40 6 82 21 l76 28 70 -33 c38 -19 70 -32 73 -29 20 22 176 252 176 259 0 17 -22 10 -107 -32z"/>
 <path d="M3067 420 c-23 -41 -32 -49 -50 -45 -89 19 -215 27 -196 12 18 -15 247 -147 255 -147 6 0 17 11 24 25 7 14 18 25 23 25 5 0 52 -18 104 -40 100 -42 117 -46 111 -31 -6 19 -222 251 -232 251 -6 0 -24 -23 -39 -50z"/>
 </g>

</svg>